<svg xmlns="http://www.w3.org/2000/svg" viewBox="0 0 300 300" width="300" height="300">
  <defs>
    <radialGradient id="starGlow" cx="50%" cy="50%" r="50%" fx="50%" fy="50%">
      <stop offset="0%" stop-color="#FFFFFF" stop-opacity="1" />
      <stop offset="60%" stop-color="#00E1FF" stop-opacity="0.9" />
      <stop offset="100%" stop-color="#00E1FF" stop-opacity="0" />
    </radialGradient>
  </defs>

  <g transform="translate(150, 150)">
    <path d="M -50 -25 L -50 25 L 0 50 L 0 0 Z" fill="#1F3353" />
    <path d="M 0 0 L 0 50 L 50 25 L 50 -25 Z" fill="#233C5B" />
    <path d="M 0 -50 L -50 -25 L 0 0 L 50 -25 Z" fill="#2C4A70" />

    <g transform="translate(0, -25)">
      <path d="M 0 -30 C 5 -10 10 -5 30 0 C 10 5 5 10 0 30 C -5 10 -10 5 -30 0 C -10 -5 -5 -10 0 -30 Z" fill="#00E1FF" />
      <path d="M 0 -30 C 5 -10 10 -5 30 0 C 10 5 5 10 0 30 C -5 10 -10 5 -30 0 C -10 -5 -5 -10 0 -30 Z" fill="url(#starGlow)" />
      <circle cx="0" cy="0" r="4" fill="#FFFFFF" />
    </g>
  </g>
</svg>